<?xml version="1.0" encoding="utf-8"?>
<!-- Generator: Adobe Illustrator 28.0.0, SVG Export Plug-In . SVG Version: 6.00 Build 0)  -->
<svg version="1.1" id="Layer_1" xmlns="http://www.w3.org/2000/svg" xmlns:xlink="http://www.w3.org/1999/xlink" x="0px" y="0px"
	 viewBox="0 0 250 19" style="enable-background:new 0 0 250 19;" xml:space="preserve">
<g>
	<g>
		<path d="M50.8,18.2v-18h1.4l9.3,15.2V0.2h1.5v18h-1.4L52.3,3.1v15.1H50.8z"/>
		<path d="M150.1,18.2v-18h1.4l9.3,15.2V0.2h1.5v18h-1.4l-9.2-15.1v15.1H150.1z"/>
		<path d="M200.9,18.2v-18h1.5v18H200.9z"/>
		<path d="M215.3,18.2l9.1-16.5h-8.5V0.2h10.9l-9.1,16.5h8.7v1.5H215.3z"/>
	</g>
	<g>
		<polygon points="8.5,8.5 1.5,8.5 1.5,0.2 0,0.2 0,18.2 1.5,18.2 1.5,9.8 8.5,9.8 		"/>
		<rect x="10" y="0.2" width="1.5" height="18"/>
	</g>
	<g>
		<path d="M30.4,16.9c-2.2-0.3-3.8-2-3.8-4.7V6.2c0-2.7,1.6-4.4,3.8-4.7V0c-3.2,0.3-5.3,2.8-5.3,6.2v5.9c0,3.4,2.1,5.9,5.3,6.2V16.9
			z"/>
		<path d="M31.9,0v1.5c2.2,0.3,3.8,2.1,3.8,4.7v6c0,2.7-1.6,4.4-3.8,4.7v1.5c3.1-0.3,5.3-2.8,5.3-6.2V6.2C37.2,2.8,35,0.3,31.9,0z"
			/>
	</g>
	<g>
		<path d="M81.5,11.7c-2.3-0.3-3.7-1.9-3.7-4.6V6.4c0-2.8,1.4-4.5,3.7-4.7V0.1c-3.2,0.3-5.2,2.6-5.2,6.1v0.9c0,3.4,1.9,5.7,5.2,5.9
			V11.7z"/>
		<path d="M83,0.2v1.5c2.3,0.3,3.7,1.9,3.7,4.7v0.8c0,2.7-1.4,4.3-3.7,4.6V13c0.6-0.1,1.2-0.3,1.7-0.5l-3.6,5.7h1.7l4.2-6.7
			c0.8-1.4,1.2-2.8,1.2-4.7V6.3C88.2,2.8,86.3,0.5,83,0.2z"/>
	</g>
	<g>
		<polygon points="103.1,8.4 103.1,8.4 103.1,0.2 101.6,0.2 101.6,18.2 103.1,18.2 103.1,9.8 103.1,9.8 		"/>
		<polyline points="104.9,9.8 111.4,18.2 113.3,18.2 106.2,9.1 113.3,0.2 111.4,0.2 104.9,8.4 		"/>
	</g>
	<g>
		<path d="M129.8,16.9c-2.2-0.3-3.8-2-3.8-4.7V6.2c0-2.7,1.6-4.4,3.8-4.7V0c-3.2,0.3-5.3,2.8-5.3,6.2v5.9c0,3.4,2.1,5.9,5.3,6.2
			V16.9z"/>
		<path d="M131.3,0v1.5c2.2,0.3,3.7,2.1,3.7,4.7v6c0,2.7-1.6,4.4-3.7,4.7v1.5c3.1-0.3,5.2-2.8,5.2-6.2V6.2
			C136.5,2.8,134.4,0.4,131.3,0z"/>
	</g>
	<g>
		<path d="M180.8,11.7c-2.3-0.3-3.7-1.9-3.7-4.6V6.4c0-2.8,1.4-4.5,3.7-4.7V0.1c-3.2,0.3-5.2,2.6-5.2,6.1v0.9c0,3.4,1.9,5.7,5.2,5.9
			V11.7z"/>
		<path d="M182.3,0.2v1.5c2.3,0.3,3.7,1.9,3.7,4.7v0.8c0,2.7-1.4,4.3-3.7,4.6V13c0.6-0.1,1.2-0.3,1.7-0.5l-3.6,5.7h1.7l4.2-6.7
			c0.8-1.4,1.2-2.8,1.2-4.7V6.3C187.6,2.8,185.6,0.5,182.3,0.2z"/>
	</g>
	<g>
		<rect x="243" y="8.5" width="4.6" height="1.4"/>
		<polygon points="250,0.2 240,0.2 240,18.2 250,18.2 250,16.8 241.5,16.8 241.5,9.8 241.5,8.5 241.5,8.3 241.5,1.7 250,1.7 		"/>
	</g>
</g>
</svg>
